<svg width="143" height="167" viewBox="0 0 143 167" fill="none" xmlns="http://www.w3.org/2000/svg">
<path fill-rule="evenodd" clip-rule="evenodd" d="M0.399902 70.8C0.399902 31.7 31.9999 0 71.1999 0C110.4 0 142.1 31.7 142.1 70.8C142.1 133.3 75.3999 166.6 75.3999 166.6V141.6H71.1999C32.0999 141.6 0.399902 109.9 0.399902 70.8ZM62.8999 95.2C62.4999 95.2 61.9999 95.1 61.5999 95C59.7999 94.3 58.8999 92.3 59.5999 90.5L75.8999 49.2C76.5999 47.4 78.5999 46.5 80.3999 47.2C82.1999 47.9 83.0999 49.9 82.3999 51.7L66.0999 93C65.5999 94.3 64.2999 95.2 62.8999 95.2ZM90.3999 90.4C89.4999 90.4 88.5999 90.1 87.8999 89.4C86.4999 88 86.4999 85.8 87.8999 84.4L101.4 70.9L87.8999 57.5C86.4999 56.1 86.4999 53.9 87.8999 52.6C89.2999 51.2 91.4999 51.2 92.7999 52.6L108.7 68.5C110.1 69.9 110.1 72.1 108.7 73.4L92.7999 89.3C92.0999 90.1 91.1999 90.4 90.3999 90.4ZM49.5999 89.4C50.2999 90.1 51.1999 90.4 52.0999 90.4C52.9999 90.4 53.8999 90.1 54.5999 89.5C55.9999 88.2 55.9999 86 54.5999 84.6L41.0999 71.1L54.5999 57.6C55.9999 56.2 55.9999 54 54.5999 52.6C53.1999 51.2 50.9999 51.2 49.5999 52.6L33.6999 68.5C33.0999 69.2 32.6999 70 32.6999 71C32.6999 72 32.9999 72.8 33.6999 73.5L49.5999 89.4Z" fill="white"/>
</svg>
