<svg width="142" height="167" viewBox="0 0 142 167" fill="none" xmlns="http://www.w3.org/2000/svg">
<path d="M70.8 0.223633C31.6 0.223633 0 31.9236 0 71.0236C0 110.124 31.7 141.924 70.8 141.924C72.5 141.924 75 141.924 75 141.924V166.924C75 166.924 141.7 133.624 141.7 71.1237C141.7 31.9237 110 0.223633 70.8 0.223633Z" fill="url(#paint0_linear)"/>
<path fill-rule="evenodd" clip-rule="evenodd" d="M80.085 47.268C81.883 47.9777 82.7653 50.0105 82.0557 51.8085L65.7557 93.1086C65.0461 94.9066 63.0132 95.7889 61.2152 95.0793C59.4172 94.3697 58.5348 92.3368 59.2445 90.5388L75.5445 49.2387C76.2541 47.4407 78.287 46.5584 80.085 47.268Z" fill="white"/>
<path fill-rule="evenodd" clip-rule="evenodd" d="M87.4251 52.7488C88.792 51.3819 91.0081 51.3819 92.3749 52.7488L108.375 68.7488C109.033 69.4065 109.401 70.299 109.4 71.2291C109.399 72.1593 109.027 73.0506 108.367 73.7063L92.3671 89.6063C90.996 90.9688 88.7799 90.9619 87.4174 89.5908C86.0549 88.2197 86.0618 86.0036 87.4329 84.641L100.943 71.2159L87.4252 57.6985C86.0583 56.3317 86.0583 54.1156 87.4251 52.7488Z" fill="white"/>
<path fill-rule="evenodd" clip-rule="evenodd" d="M54.1671 52.741C55.5383 54.1036 55.5452 56.3196 54.1827 57.6907L40.742 71.2159L54.1749 84.6488C55.5418 86.0156 55.5417 88.2317 54.1749 89.5985C52.8081 90.9654 50.592 90.9654 49.2252 89.5985L33.3252 73.6985C31.9614 72.3347 31.9579 70.1246 33.3174 68.7565L49.2174 52.7565C50.58 51.3854 52.796 51.3785 54.1671 52.741Z" fill="white"/>
<defs>
<linearGradient id="paint0_linear" x1="-0.0812" y1="83.5871" x2="141.585" y2="83.5871" gradientUnits="userSpaceOnUse">
<stop stop-color="#FF6199"/>
<stop offset="1" stop-color="#FFA969"/>
</linearGradient>
</defs>
</svg>
