<svg width="20" height="28" viewBox="0 0 20 28" fill="none" xmlns="http://www.w3.org/2000/svg">
<path fill-rule="evenodd" clip-rule="evenodd" d="M20 8.00001C20 5.78001 18.22 4.00001 16 4.00001C15.1213 3.99769 14.2665 4.28579 13.5684 4.81951C12.8704 5.35323 12.3682 6.10265 12.1401 6.95123C11.912 7.79981 11.9707 8.69998 12.307 9.51176C12.6434 10.3235 13.2386 11.0014 14 11.44V12.04C13.96 13.08 13.54 14 12.74 14.8C11.94 15.6 11.02 16.02 9.98 16.06C8.32 16.1 7.02 16.38 5.98 16.96V7.44001C6.74143 7.00144 7.3366 6.32355 7.67295 5.51177C8.00931 4.69998 8.06799 3.79981 7.83988 2.95123C7.61176 2.10265 7.10964 1.35323 6.41159 0.81951C5.71355 0.285792 4.8587 -0.00230778 3.98 1.39231e-05C1.76 1.39231e-05 0 1.78001 0 4.00001C0.00421348 4.69807 0.191035 5.38286 0.541898 5.98635C0.892761 6.58983 1.39545 7.09099 2 7.44001V20.56C0.82 21.26 0 22.54 0 24C0 26.22 1.78 28 4 28C6.22 28 8 26.22 8 24C8 22.94 7.6 22 6.94 21.28C7.12 21.16 7.9 20.46 8.12 20.34C8.62 20.12 9.24 20 10 20C12.1 19.9 13.9 19.1 15.5 17.5C17.1 15.9 17.9 13.54 18 11.46H17.96C19.18 10.74 20 9.46001 20 8.00001ZM4 1.60001C5.32 1.60001 6.4 2.70001 6.4 4.00001C6.4 5.30001 5.3 6.40001 4 6.40001C2.7 6.40001 1.6 5.30001 1.6 4.00001C1.6 2.70001 2.7 1.60001 4 1.60001ZM4 26.42C2.68 26.42 1.6 25.32 1.6 24.02C1.6 22.72 2.7 21.62 4 21.62C5.3 21.62 6.4 22.72 6.4 24.02C6.4 25.32 5.3 26.42 4 26.42ZM16 10.42C14.68 10.42 13.6 9.32001 13.6 8.02001C13.6 6.72001 14.7 5.62001 16 5.62001C17.3 5.62001 18.4 6.72001 18.4 8.02001C18.4 9.32001 17.3 10.42 16 10.42V10.42Z" fill="#1A1824"/>
</svg>