<svg width="706" height="168" viewBox="0 0 706 168" fill="none" xmlns="http://www.w3.org/2000/svg">
<path d="M71.5 0.5C32.3 0.5 0.699951 32.2 0.699951 71.3C0.699951 110.4 32.4 142.1 71.5 142.1C73.2 142.1 75.7 142.1 75.7 142.1V167.1C75.7 167.1 142.4 133.8 142.4 71.3C142.4 32.2 110.7 0.5 71.5 0.5Z" fill="url(#paint0_linear)"/>
<path d="M63.2 95.7C62.8 95.7 62.3 95.6 61.9 95.5C60.1 94.8 59.2 92.8 59.9 91L76.2 49.7C76.9 47.9 78.9 47 80.7 47.7C82.5 48.4 83.4 50.4 82.7 52.2L66.4 93.5C65.9 94.8 64.6 95.7 63.2 95.7Z" fill="white"/>
<path d="M90.7 90.9C89.8 90.9 88.9 90.6 88.2 89.9C86.8 88.5 86.8 86.3 88.2 84.9L101.7 71.4L88.2 58C86.8 56.6 86.8 54.4 88.2 53.1C89.6 51.7 91.8 51.7 93.1 53.1L109 69C110.4 70.4 110.4 72.6 109 73.9L93.1 89.8C92.4 90.6 91.5 90.9 90.7 90.9Z" fill="white"/>
<path d="M52.4 90.9C51.5 90.9 50.6 90.6 49.9 89.9L34 74C33.3 73.3 33 72.5 33 71.5C33 70.5 33.4 69.7 34 69L49.9 53.1C51.3 51.7 53.5 51.7 54.9 53.1C56.3 54.5 56.3 56.7 54.9 58.1L41.4 71.6L54.9 85.1C56.3 86.5 56.3 88.7 54.9 90C54.2 90.6 53.3 90.9 52.4 90.9Z" fill="white"/>
<path d="M175.939 10.3746H202.524C208.878 10.3746 214.479 11.6008 219.328 14.0531C224.233 16.4497 228.023 19.8495 230.698 24.2525C233.429 28.6555 234.795 33.7831 234.795 39.6353C234.795 45.4874 233.429 50.615 230.698 55.018C228.023 59.421 224.233 62.8487 219.328 65.301C214.479 67.6976 208.878 68.8959 202.524 68.8959H175.939V10.3746ZM201.856 57.7768C207.708 57.7768 212.361 56.1605 215.817 52.9279C219.328 49.6396 221.084 45.2087 221.084 39.6353C221.084 34.0618 219.328 29.6588 215.817 26.4262C212.361 23.1378 207.708 21.4937 201.856 21.4937H189.482V57.7768H201.856Z" fill="white"/>
<path d="M290.321 58.0276V68.8959H245.008V10.3746H289.234V21.2429H258.468V33.9503H285.639V44.4842H258.468V58.0276H290.321Z" fill="white"/>
<path d="M356.544 10.3746L331.213 68.8959H317.837L292.589 10.3746H307.219L325.026 52.1755L343.084 10.3746H356.544Z" fill="white"/>
<path d="M406.743 58.0276V68.8959H361.43V10.3746H405.656V21.2429H374.89V33.9503H402.061V44.4842H374.89V58.0276H406.743Z" fill="white"/>
<path d="M417.519 10.3746H431.062V57.8604H460.406V68.8959H417.519V10.3746Z" fill="white"/>
<path d="M495.335 69.8991C489.26 69.8991 483.77 68.5893 478.865 65.9698C474.017 63.3503 470.199 59.7554 467.412 55.1852C464.681 50.5592 463.316 45.3759 463.316 39.6353C463.316 33.8946 464.681 28.7392 467.412 24.1689C470.199 19.543 474.017 15.9202 478.865 13.3007C483.77 10.6812 489.26 9.3714 495.335 9.3714C501.41 9.3714 506.872 10.6812 511.721 13.3007C516.57 15.9202 520.388 19.543 523.174 24.1689C525.961 28.7392 527.355 33.8946 527.355 39.6353C527.355 45.3759 525.961 50.5592 523.174 55.1852C520.388 59.7554 516.57 63.3503 511.721 65.9698C506.872 68.5893 501.41 69.8991 495.335 69.8991ZM495.335 58.3621C498.791 58.3621 501.912 57.5818 504.698 56.0212C507.485 54.4049 509.659 52.1755 511.219 49.3331C512.836 46.4906 513.644 43.258 513.644 39.6353C513.644 36.0125 512.836 32.7799 511.219 29.9374C509.659 27.095 507.485 24.8935 504.698 23.3329C501.912 21.7166 498.791 20.9084 495.335 20.9084C491.88 20.9084 488.758 21.7166 485.972 23.3329C483.185 24.8935 480.983 27.095 479.367 29.9374C477.807 32.7799 477.026 36.0125 477.026 39.6353C477.026 43.258 477.807 46.4906 479.367 49.3331C480.983 52.1755 483.185 54.4049 485.972 56.0212C488.758 57.5818 491.88 58.3621 495.335 58.3621Z" fill="white"/>
<path d="M562.864 10.3746C568.048 10.3746 572.534 11.2385 576.324 12.9663C580.17 14.694 583.124 17.1464 585.186 20.3232C587.248 23.5001 588.279 27.2622 588.279 31.6095C588.279 35.901 587.248 39.6631 585.186 42.8957C583.124 46.0726 580.17 48.5249 576.324 50.2527C572.534 51.9247 568.048 52.7607 562.864 52.7607H551.077V68.8959H537.533V10.3746H562.864ZM562.112 41.7253C566.181 41.7253 569.274 40.8614 571.392 39.1336C573.51 37.3501 574.569 34.8421 574.569 31.6095C574.569 28.3211 573.51 25.8131 571.392 24.0853C569.274 22.3018 566.181 21.4101 562.112 21.4101H551.077V41.7253H562.112Z" fill="white"/>
<path d="M643.261 58.0276V68.8959H597.948V10.3746H642.174V21.2429H611.408V33.9503H638.579V44.4842H611.408V58.0276H643.261Z" fill="white"/>
<path d="M691.323 68.8959L680.037 52.5935H679.368H667.58V68.8959H654.037V10.3746H679.368C684.551 10.3746 689.038 11.2385 692.828 12.9663C696.674 14.694 699.628 17.1464 701.69 20.3232C703.752 23.5001 704.783 27.2622 704.783 31.6095C704.783 35.9568 703.724 39.7189 701.606 42.8957C699.544 46.0169 696.59 48.4134 692.744 50.0855L705.87 68.8959H691.323ZM691.072 31.6095C691.072 28.3211 690.013 25.8131 687.895 24.0853C685.778 22.3018 682.684 21.4101 678.616 21.4101H667.58V41.8089H678.616C682.684 41.8089 685.778 40.9171 687.895 39.1336C690.013 37.3501 691.072 34.8421 691.072 31.6095Z" fill="white"/>
<path d="M229.611 86.3746V144.896H216.068V120.902H189.482V144.896H175.939V86.3746H189.482V109.449H216.068V86.3746H229.611Z" fill="white"/>
<path d="M281.998 132.356H254.827L249.644 144.896H235.766L261.85 86.3746H275.226L301.393 144.896H287.181L281.998 132.356ZM277.734 122.073L268.454 99.6673L259.174 122.073H277.734Z" fill="white"/>
<path d="M361.137 86.3746V144.896H350.018L320.841 109.365V144.896H307.465V86.3746H318.667L347.761 121.905V86.3746H361.137Z" fill="white"/>
<path d="M414.527 114.716H426.9V138.459C423.723 140.855 420.044 142.694 415.864 143.976C411.684 145.258 407.476 145.899 403.241 145.899C397.165 145.899 391.703 144.617 386.855 142.053C382.006 139.434 378.188 135.839 375.401 131.269C372.67 126.643 371.305 121.432 371.305 115.635C371.305 109.839 372.67 104.656 375.401 100.085C378.188 95.4594 382.034 91.8645 386.938 89.3007C391.843 86.6812 397.361 85.3714 403.491 85.3714C408.619 85.3714 413.273 86.2353 417.453 87.9631C421.633 89.6908 425.144 92.1989 427.987 95.4872L419.292 103.513C415.112 99.11 410.068 96.9084 404.16 96.9084C400.426 96.9084 397.11 97.6887 394.212 99.2493C391.313 100.81 389.056 103.011 387.44 105.854C385.823 108.696 385.015 111.957 385.015 115.635C385.015 119.258 385.823 122.491 387.44 125.333C389.056 128.176 391.285 130.405 394.128 132.021C397.026 133.582 400.314 134.362 403.993 134.362C407.894 134.362 411.406 133.526 414.527 131.854V114.716Z" fill="white"/>
<path d="M467.822 145.899C461.747 145.899 456.257 144.589 451.352 141.97C446.503 139.35 442.685 135.755 439.899 131.185C437.168 126.559 435.802 121.376 435.802 115.635C435.802 109.895 437.168 104.739 439.899 100.169C442.685 95.5429 446.503 91.9202 451.352 89.3007C456.257 86.6812 461.747 85.3714 467.822 85.3714C473.897 85.3714 479.359 86.6812 484.208 89.3007C489.056 91.9202 492.874 95.5429 495.661 100.169C498.448 104.739 499.841 109.895 499.841 115.635C499.841 121.376 498.448 126.559 495.661 131.185C492.874 135.755 489.056 139.35 484.208 141.97C479.359 144.589 473.897 145.899 467.822 145.899ZM467.822 134.362C471.277 134.362 474.398 133.582 477.185 132.021C479.972 130.405 482.145 128.176 483.706 125.333C485.322 122.491 486.13 119.258 486.13 115.635C486.13 112.013 485.322 108.78 483.706 105.937C482.145 103.095 479.972 100.893 477.185 99.3329C474.398 97.7166 471.277 96.9084 467.822 96.9084C464.366 96.9084 461.245 97.7166 458.458 99.3329C455.671 100.893 453.47 103.095 451.854 105.937C450.293 108.78 449.513 112.013 449.513 115.635C449.513 119.258 450.293 122.491 451.854 125.333C453.47 128.176 455.671 130.405 458.458 132.021C461.245 133.582 464.366 134.362 467.822 134.362Z" fill="white"/>
<path d="M536.02 145.899C527.66 145.899 521.139 143.586 516.457 138.96C511.831 134.334 509.518 127.73 509.518 119.147V86.3746H523.061V118.645C523.061 129.123 527.409 134.362 536.103 134.362C540.339 134.362 543.572 133.108 545.801 130.6C548.031 128.036 549.145 124.051 549.145 118.645V86.3746H562.522V119.147C562.522 127.73 560.181 134.334 555.499 138.96C550.873 143.586 544.38 145.899 536.02 145.899Z" fill="white"/>
<path d="M587.048 97.4101H568.321V86.3746H619.318V97.4101H600.591V144.896H587.048V97.4101Z" fill="white"/>
<defs>
<linearGradient id="paint0_linear" x1="0.708151" y1="83.8344" x2="142.375" y2="83.8344" gradientUnits="userSpaceOnUse">
<stop stop-color="#FF6199"/>
<stop offset="1" stop-color="#FFA969"/>
</linearGradient>
</defs>
</svg>
