<svg width="1188" height="167" viewBox="0 0 1188 167" fill="none" xmlns="http://www.w3.org/2000/svg">
<path d="M71.1001 0C31.9001 0 0.300049 31.7 0.300049 70.8C0.300049 110 32.0001 141.6 71.1001 141.6C72.8001 141.6 75.3 141.6 75.3 141.6V166.6C75.3 166.6 142 133.3 142 70.8C142 31.7 110.3 0 71.1001 0Z" fill="url(#paint0_linear)"/>
<path d="M71.5 0C32.3 0 0.699951 31.7 0.699951 70.8C0.699951 109.9 32.4 141.6 71.5 141.6C73.2 141.6 75.7 141.6 75.7 141.6V166.6C75.7 166.6 142.4 133.3 142.4 70.8C142.4 31.7 110.7 0 71.5 0Z" fill="url(#paint1_linear)"/>
<path d="M63.2 95.2C62.8 95.2 62.3 95.1 61.9 95C60.1 94.3 59.2 92.3 59.9 90.5L76.2 49.2C76.9 47.4 78.9 46.5 80.7 47.2C82.5 47.9 83.4 49.9 82.7 51.7L66.4 93C65.9 94.3 64.6 95.2 63.2 95.2Z" fill="white"/>
<path d="M90.7 90.4C89.8 90.4 88.9 90.1 88.2 89.4C86.8 88 86.8 85.8 88.2 84.4L101.7 70.9L88.2 57.5C86.8 56.1 86.8 53.9 88.2 52.6C89.6 51.2 91.8 51.2 93.1 52.6L109 68.5C110.4 69.9 110.4 72.1 109 73.4L93.1 89.3C92.4 90.1 91.5 90.4 90.7 90.4Z" fill="white"/>
<path d="M52.4 90.4C51.5 90.4 50.6 90.1 49.9 89.4L34 73.5C33.3 72.8 33 72 33 71C33 70 33.4 69.2 34 68.5L49.9 52.6C51.3 51.2 53.5 51.2 54.9 52.6C56.3 54 56.3 56.2 54.9 57.6L41.4 71.1L54.9 84.6C56.3 86 56.3 88.2 54.9 89.5C54.2 90.1 53.3 90.4 52.4 90.4Z" fill="white"/>
<path d="M185.343 16.1325H229.501C239.729 16.1325 248.801 18.0447 256.717 21.8691C264.632 25.6935 270.769 31.1187 275.127 38.1449C279.485 45.1711 281.664 53.3979 281.664 62.8255C281.664 72.253 279.485 80.4798 275.127 87.506C270.769 94.5322 264.632 99.9575 256.717 103.782C248.801 107.606 239.729 109.518 229.501 109.518H185.343V16.1325ZM228.434 88.4399C236.439 88.4399 242.842 86.1719 247.645 81.636C252.537 77.1002 254.982 70.83 254.982 62.8255C254.982 54.821 252.537 48.5508 247.645 44.0149C242.842 39.479 236.439 37.211 228.434 37.211H211.758V88.4399H228.434Z" fill="white"/>
<path d="M370.537 89.1069V109.518H295.561V16.1325H368.803V36.544H321.709V52.2862H363.199V72.0306H321.709V89.1069H370.537Z" fill="white"/>
<path d="M478.612 16.1325L438.59 109.518H412.575L372.686 16.1325H401.235L426.583 76.9668L452.464 16.1325H478.612Z" fill="white"/>
<path d="M571.014 16.1325V109.518H557.673V67.895H504.043V109.518H490.702V16.1325H504.043V56.2884H557.673V16.1325H571.014Z" fill="white"/>
<path d="M658.467 86.1719H608.839L598.566 109.518H584.825L627.116 16.1325H640.323L682.747 109.518H668.739L658.467 86.1719ZM653.797 75.4993L633.653 29.7402L613.508 75.4993H653.797Z" fill="white"/>
<path d="M776.99 16.1325V109.518H766.05L710.019 39.8792V109.518H696.678V16.1325H707.617L763.649 85.7717V16.1325H776.99Z" fill="white"/>
<path d="M869.645 62.2918H882.452V98.7123C877.827 102.537 872.446 105.472 866.31 107.517C860.173 109.563 853.769 110.586 847.099 110.586C837.671 110.586 829.178 108.54 821.618 104.449C814.058 100.269 808.099 94.5767 803.741 87.3726C799.472 80.0796 797.338 71.8972 797.338 62.8255C797.338 53.7537 799.472 45.5713 803.741 38.2783C808.099 30.9853 814.058 25.2932 821.618 21.202C829.267 17.1108 837.849 15.0653 847.366 15.0653C854.837 15.0653 861.596 16.3104 867.644 18.8007C873.781 21.202 878.983 24.7596 883.253 29.4734L874.981 37.7447C867.51 30.5406 858.483 26.9386 847.899 26.9386C840.784 26.9386 834.381 28.495 828.689 31.6079C823.085 34.6318 818.683 38.9009 815.481 44.4151C812.279 49.8404 810.678 55.9772 810.678 62.8255C810.678 69.5848 812.279 75.7216 815.481 81.2358C818.683 86.6611 823.085 90.9302 828.689 94.043C834.381 97.1559 840.74 98.7123 847.766 98.7123C856.126 98.7123 863.419 96.7112 869.645 92.7089V62.2918Z" fill="white"/>
<path d="M950.152 110.586C940.724 110.586 932.23 108.54 924.671 104.449C917.111 100.269 911.152 94.5322 906.794 87.2392C902.525 79.9462 900.39 71.8083 900.39 62.8255C900.39 53.8426 902.525 45.7047 906.794 38.4117C911.152 31.1187 917.111 25.4266 924.671 21.3354C932.23 17.1553 940.724 15.0653 950.152 15.0653C959.49 15.0653 967.939 17.1553 975.499 21.3354C983.059 25.4266 988.973 31.1187 993.243 38.4117C997.512 45.6158 999.646 53.7537 999.646 62.8255C999.646 71.8972 997.512 80.0796 993.243 87.3726C988.973 94.5767 983.059 100.269 975.499 104.449C967.939 108.54 959.49 110.586 950.152 110.586ZM950.152 98.7123C957 98.7123 963.137 97.1559 968.562 94.043C974.076 90.9302 978.39 86.6611 981.503 81.2358C984.704 75.7216 986.305 69.5848 986.305 62.8255C986.305 56.0661 984.704 49.9738 981.503 44.5485C978.39 39.0343 974.076 34.7208 968.562 31.6079C963.137 28.495 957 26.9386 950.152 26.9386C943.303 26.9386 937.078 28.495 931.474 31.6079C925.96 34.7208 921.602 39.0343 918.4 44.5485C915.288 49.9738 913.731 56.0661 913.731 62.8255C913.731 69.5848 915.288 75.7216 918.4 81.2358C921.602 86.6611 925.96 90.9302 931.474 94.043C937.078 97.1559 943.303 98.7123 950.152 98.7123Z" fill="white"/>
<path d="M1058.73 110.586C1046.27 110.586 1036.58 107.028 1029.64 99.913C1022.7 92.7979 1019.24 82.5699 1019.24 69.2291V16.1325H1032.58V68.6954C1032.58 88.7067 1041.34 98.7123 1058.86 98.7123C1067.4 98.7123 1073.93 96.2665 1078.47 91.3749C1083.01 86.3943 1085.27 78.8345 1085.27 68.6954V16.1325H1098.21V69.2291C1098.21 82.6588 1094.75 92.9313 1087.81 100.046C1080.87 107.073 1071.18 110.586 1058.73 110.586Z" fill="white"/>
<path d="M1142.42 27.739H1110.4V16.1325H1187.64V27.739H1155.62V109.518H1142.42V27.739Z" fill="white"/>
<defs>
<linearGradient id="paint0_linear" x1="0.296949" y1="83.3453" x2="141.964" y2="83.3453" gradientUnits="userSpaceOnUse">
<stop stop-color="#FF6199"/>
<stop offset="1" stop-color="#FFA969"/>
</linearGradient>
<linearGradient id="paint1_linear" x1="0.708151" y1="83.3344" x2="142.375" y2="83.3344" gradientUnits="userSpaceOnUse">
<stop stop-color="#FF6199"/>
<stop offset="1" stop-color="#FFA969"/>
</linearGradient>
</defs>
</svg>
