<svg width="1188" height="168" viewBox="0 0 1188 168" fill="none" xmlns="http://www.w3.org/2000/svg">
<path d="M71.1001 0.827698C31.9001 0.827698 0.300049 32.5277 0.300049 71.6277C0.300049 110.728 32.0001 142.528 71.1001 142.528C72.8001 142.528 75.3 142.528 75.3 142.528V167.528C75.3 167.528 142 134.228 142 71.7277C142 32.5277 110.3 0.827698 71.1001 0.827698Z" fill="url(#paint0_linear)"/>
<path fill-rule="evenodd" clip-rule="evenodd" d="M80.385 47.8721C82.1831 48.5817 83.0654 50.6146 82.3557 52.4126L66.0557 93.7126C65.3461 95.5107 63.3133 96.393 61.5152 95.6833C59.7172 94.9737 58.8349 92.9408 59.5445 91.1428L75.8445 49.8428C76.5542 48.0447 78.587 47.1624 80.385 47.8721Z" fill="white"/>
<path fill-rule="evenodd" clip-rule="evenodd" d="M87.7252 53.3528C89.092 51.986 91.3081 51.986 92.6749 53.3528L108.675 69.3528C109.333 70.0105 109.702 70.903 109.7 71.8332C109.699 72.7633 109.327 73.6547 108.667 74.3103L92.6672 90.2103C91.2961 91.5729 89.08 91.5659 87.7175 90.1948C86.3549 88.8237 86.3619 86.6076 87.733 85.2451L101.243 71.8199L87.7252 58.3026C86.3584 56.9357 86.3584 54.7197 87.7252 53.3528Z" fill="white"/>
<path fill-rule="evenodd" clip-rule="evenodd" d="M54.4672 53.3451C55.8383 54.7076 55.8453 56.9237 54.4827 58.2948L41.0421 71.82L54.475 85.2529C55.8418 86.6197 55.8418 88.8358 54.475 90.2026C53.1081 91.5694 50.892 91.5694 49.5252 90.2026L33.6252 74.3026C32.2614 72.9388 32.258 70.7287 33.6175 69.3606L49.5175 53.3606C50.88 51.9895 53.0961 51.9825 54.4672 53.3451Z" fill="white"/>
<path d="M185.343 26.6141H229.501C239.729 26.6141 248.801 28.5263 256.717 32.3507C264.632 36.175 270.769 41.6003 275.127 48.6265C279.485 55.6527 281.664 63.8795 281.664 73.307C281.664 82.7346 279.485 90.9614 275.127 97.9876C270.769 105.014 264.632 110.439 256.717 114.263C248.801 118.088 239.729 120 229.501 120H185.343V26.6141ZM228.434 98.9215C236.439 98.9215 242.842 96.6535 247.645 92.1176C252.537 87.5818 254.982 81.3115 254.982 73.307C254.982 65.3025 252.537 59.0323 247.645 54.4965C242.842 49.9606 236.439 47.6926 228.434 47.6926H211.758V98.9215H228.434Z" fill="white"/>
<path d="M370.537 99.5885V120H295.562V26.6141H368.803V47.0256H321.71V62.7678H363.2V82.5122H321.71V99.5885H370.537Z" fill="white"/>
<path d="M478.612 26.6141L438.59 120H412.575L372.686 26.6141H401.236L426.583 87.4483L452.464 26.6141H478.612Z" fill="white"/>
<path d="M571.014 26.6141V120H557.674V78.3766H504.043V120H490.703V26.6141H504.043V66.77H557.674V26.6141H571.014Z" fill="white"/>
<path d="M658.467 96.6535H608.839L598.566 120H584.825L627.116 26.6141H640.323L682.747 120H668.739L658.467 96.6535ZM653.797 85.9809L633.653 40.2218L613.508 85.9809H653.797Z" fill="white"/>
<path d="M776.99 26.6141V120H766.05L710.019 50.3608V120H696.678V26.6141H707.617L763.649 96.2533V26.6141H776.99Z" fill="white"/>
<path d="M869.645 72.7734H882.452V109.194C877.827 113.018 872.447 115.953 866.31 117.999C860.173 120.044 853.769 121.067 847.099 121.067C837.671 121.067 829.178 119.022 821.618 114.93C814.058 110.75 808.099 105.058 803.741 97.8542C799.472 90.5612 797.338 82.3788 797.338 73.307C797.338 64.2353 799.472 56.0529 803.741 48.7599C808.099 41.4669 814.058 35.7748 821.618 31.6836C829.267 27.5924 837.849 25.5468 847.366 25.5468C854.837 25.5468 861.596 26.792 867.644 29.2823C873.781 31.6836 878.984 35.2412 883.253 39.9549L874.981 48.2263C867.511 41.0222 858.483 37.4202 847.899 37.4202C840.784 37.4202 834.381 38.9766 828.689 42.0895C823.086 45.1134 818.683 49.3825 815.481 54.8967C812.279 60.322 810.679 66.4587 810.679 73.307C810.679 80.0664 812.279 86.2032 815.481 91.7174C818.683 97.1427 823.086 101.412 828.689 104.525C834.381 107.637 840.74 109.194 847.766 109.194C856.126 109.194 863.419 107.193 869.645 103.191V72.7734Z" fill="white"/>
<path d="M950.152 121.067C940.724 121.067 932.231 119.022 924.671 114.93C917.111 110.75 911.152 105.014 906.794 97.7208C902.525 90.4278 900.39 82.2899 900.39 73.307C900.39 64.3242 902.525 56.1863 906.794 48.8933C911.152 41.6003 917.111 35.9082 924.671 31.817C932.231 27.6369 940.724 25.5468 950.152 25.5468C959.49 25.5468 967.94 27.6369 975.499 31.817C983.059 35.9082 988.974 41.6003 993.243 48.8933C997.512 56.0974 999.646 64.2353 999.646 73.307C999.646 82.3788 997.512 90.5612 993.243 97.8542C988.974 105.058 983.059 110.75 975.499 114.93C967.94 119.022 959.49 121.067 950.152 121.067ZM950.152 109.194C957 109.194 963.137 107.637 968.562 104.525C974.076 101.412 978.39 97.1427 981.503 91.7174C984.705 86.2032 986.305 80.0664 986.305 73.307C986.305 66.5477 984.705 60.4554 981.503 55.0301C978.39 49.5159 974.076 45.2023 968.562 42.0895C963.137 38.9766 957 37.4202 950.152 37.4202C943.303 37.4202 937.078 38.9766 931.475 42.0895C925.96 45.2023 921.602 49.5159 918.401 55.0301C915.288 60.4554 913.731 66.5477 913.731 73.307C913.731 80.0664 915.288 86.2032 918.401 91.7174C921.602 97.1427 925.96 101.412 931.475 104.525C937.078 107.637 943.303 109.194 950.152 109.194Z" fill="white"/>
<path d="M1058.73 121.067C1046.27 121.067 1036.58 117.51 1029.64 110.395C1022.71 103.279 1019.24 93.0515 1019.24 79.7107V26.6141H1032.58V79.177C1032.58 99.1883 1041.34 109.194 1058.86 109.194C1067.4 109.194 1073.93 106.748 1078.47 101.856C1083.01 96.8759 1085.27 89.3161 1085.27 79.177V26.6141H1098.21V79.7107C1098.21 93.1404 1094.75 103.413 1087.81 110.528C1080.87 117.554 1071.18 121.067 1058.73 121.067Z" fill="white"/>
<path d="M1142.42 38.2206H1110.4V26.6141H1187.64V38.2206H1155.62V120H1142.42V38.2206Z" fill="white"/>
<defs>
<linearGradient id="paint0_linear" x1="0.296949" y1="84.1538" x2="141.964" y2="84.1538" gradientUnits="userSpaceOnUse">
<stop stop-color="#4D91FF"/>
<stop offset="1" stop-color="#55C2FA"/>
</linearGradient>
</defs>
</svg>
