<svg width="706" height="168" viewBox="0 0 706 168" fill="none" xmlns="http://www.w3.org/2000/svg">
<path fill-rule="evenodd" clip-rule="evenodd" d="M0.699951 71.4041C0.699951 32.3041 32.3 0.604126 71.5 0.604126C110.7 0.604126 142.4 32.3041 142.4 71.4041C142.4 133.904 75.7 167.204 75.7 167.204V142.204H71.5C32.4 142.204 0.699951 110.504 0.699951 71.4041ZM63.1999 95.8041C62.7999 95.8041 62.2999 95.7041 61.8999 95.6041C60.0999 94.9041 59.1999 92.9041 59.8999 91.1041L76.1999 49.8041C76.8999 48.0041 78.8999 47.1041 80.6999 47.8041C82.4999 48.5041 83.3999 50.5041 82.6999 52.3041L66.3999 93.6041C65.8999 94.9041 64.5999 95.8041 63.1999 95.8041ZM90.7 91.0041C89.7999 91.0041 88.8999 90.7041 88.1999 90.0041C86.7999 88.6041 86.7999 86.4041 88.1999 85.0041L101.7 71.5041L88.1999 58.1041C86.7999 56.7041 86.7999 54.5041 88.1999 53.2041C89.5999 51.8041 91.7999 51.8041 93.0999 53.2041L109 69.1041C110.4 70.5041 110.4 72.7041 109 74.0041L93.0999 89.9041C92.3999 90.7041 91.4999 91.0041 90.7 91.0041ZM49.8999 90.0041C50.5999 90.7041 51.4999 91.0041 52.3999 91.0041C53.2999 91.0041 54.1999 90.7041 54.8999 90.1041C56.2999 88.8041 56.2999 86.6041 54.8999 85.2041L41.3999 71.7041L54.8999 58.2041C56.2999 56.8041 56.2999 54.6041 54.8999 53.2041C53.4999 51.8041 51.2999 51.8041 49.8999 53.2041L33.9999 69.1041C33.3999 69.8041 32.9999 70.6041 32.9999 71.6041C32.9999 72.6041 33.2999 73.4041 33.9999 74.1041L49.8999 90.0041Z" fill="white"/>
<path d="M175.939 10.4787H202.524C208.878 10.4787 214.479 11.7049 219.328 14.1572C224.233 16.5538 228.023 19.9536 230.698 24.3566C233.429 28.7597 234.795 33.8873 234.795 39.7394C234.795 45.5915 233.429 50.7191 230.698 55.1221C228.023 59.5251 224.233 62.9528 219.328 65.4051C214.479 67.8017 208.878 69 202.524 69H175.939V10.4787ZM201.856 57.881C207.708 57.881 212.361 56.2647 215.817 53.0321C219.328 49.7437 221.084 45.3128 221.084 39.7394C221.084 34.1659 219.328 29.7629 215.817 26.5303C212.361 23.242 207.708 21.5978 201.856 21.5978H189.482V57.881H201.856Z" fill="white"/>
<path d="M290.321 58.1318V69H245.008V10.4787H289.234V21.347H258.468V34.0545H285.639V44.5883H258.468V58.1318H290.321Z" fill="white"/>
<path d="M356.544 10.4787L331.213 69H317.837L292.589 10.4787H307.219L325.026 52.2796L343.084 10.4787H356.544Z" fill="white"/>
<path d="M406.743 58.1318V69H361.43V10.4787H405.656V21.347H374.89V34.0545H402.061V44.5883H374.89V58.1318H406.743Z" fill="white"/>
<path d="M417.519 10.4787H431.062V57.9646H460.406V69H417.519V10.4787Z" fill="white"/>
<path d="M495.335 70.0032C489.26 70.0032 483.77 68.6935 478.865 66.0739C474.017 63.4544 470.199 59.8595 467.412 55.2893C464.681 50.6633 463.316 45.48 463.316 39.7394C463.316 33.9987 464.681 28.8433 467.412 24.273C470.199 19.6471 474.017 16.0243 478.865 13.4048C483.77 10.7853 489.26 9.47552 495.335 9.47552C501.41 9.47552 506.872 10.7853 511.721 13.4048C516.57 16.0243 520.388 19.6471 523.174 24.273C525.961 28.8433 527.355 33.9987 527.355 39.7394C527.355 45.48 525.961 50.6633 523.174 55.2893C520.388 59.8595 516.57 63.4544 511.721 66.0739C506.872 68.6935 501.41 70.0032 495.335 70.0032ZM495.335 58.4662C498.791 58.4662 501.912 57.6859 504.698 56.1253C507.485 54.509 509.659 52.2796 511.219 49.4372C512.836 46.5947 513.644 43.3621 513.644 39.7394C513.644 36.1166 512.836 32.884 511.219 30.0416C509.659 27.1991 507.485 24.9976 504.698 23.437C501.912 21.8207 498.791 21.0126 495.335 21.0126C491.88 21.0126 488.758 21.8207 485.972 23.437C483.185 24.9976 480.983 27.1991 479.367 30.0416C477.807 32.884 477.026 36.1166 477.026 39.7394C477.026 43.3621 477.807 46.5947 479.367 49.4372C480.983 52.2796 483.185 54.509 485.972 56.1253C488.758 57.6859 491.88 58.4662 495.335 58.4662Z" fill="white"/>
<path d="M562.864 10.4787C568.048 10.4787 572.534 11.3426 576.324 13.0704C580.17 14.7982 583.124 17.2505 585.186 20.4274C587.248 23.6042 588.279 27.3663 588.279 31.7136C588.279 36.0052 587.248 39.7672 585.186 42.9998C583.124 46.1767 580.17 48.629 576.324 50.3568C572.534 52.0288 568.048 52.8649 562.864 52.8649H551.077V69H537.533V10.4787H562.864ZM562.112 41.8294C566.181 41.8294 569.274 40.9655 571.392 39.2378C573.51 37.4543 574.569 34.9462 574.569 31.7136C574.569 28.4253 573.51 25.9172 571.392 24.1894C569.274 22.4059 566.181 21.5142 562.112 21.5142H551.077V41.8294H562.112Z" fill="white"/>
<path d="M643.261 58.1318V69H597.948V10.4787H642.174V21.347H611.408V34.0545H638.579V44.5883H611.408V58.1318H643.261Z" fill="white"/>
<path d="M691.323 69L680.037 52.6977H679.368H667.58V69H654.037V10.4787H679.368C684.551 10.4787 689.038 11.3426 692.828 13.0704C696.674 14.7982 699.628 17.2505 701.69 20.4274C703.752 23.6042 704.783 27.3663 704.783 31.7136C704.783 36.0609 703.724 39.823 701.606 42.9998C699.544 46.121 696.59 48.5176 692.744 50.1896L705.87 69H691.323ZM691.072 31.7136C691.072 28.4253 690.013 25.9172 687.895 24.1894C685.778 22.4059 682.684 21.5142 678.616 21.5142H667.58V41.913H678.616C682.684 41.913 685.778 41.0213 687.895 39.2378C690.013 37.4543 691.072 34.9462 691.072 31.7136Z" fill="white"/>
<path d="M229.611 86.4787V145H216.068V121.006H189.482V145H175.939V86.4787H189.482V109.553H216.068V86.4787H229.611Z" fill="white"/>
<path d="M281.998 132.46H254.827L249.644 145H235.766L261.85 86.4787H275.226L301.393 145H287.181L281.998 132.46ZM277.734 122.177L268.454 99.7714L259.174 122.177H277.734Z" fill="white"/>
<path d="M361.137 86.4787V145H350.018L320.841 109.469V145H307.465V86.4787H318.667L347.761 122.01V86.4787H361.137Z" fill="white"/>
<path d="M414.527 114.82H426.9V138.563C423.723 140.959 420.044 142.798 415.864 144.08C411.684 145.362 407.476 146.003 403.241 146.003C397.165 146.003 391.703 144.721 386.855 142.158C382.006 139.538 378.188 135.943 375.401 131.373C372.67 126.747 371.305 121.536 371.305 115.739C371.305 109.943 372.67 104.76 375.401 100.189C378.188 95.5635 382.034 91.9686 386.938 89.4048C391.843 86.7853 397.361 85.4755 403.491 85.4755C408.619 85.4755 413.273 86.3394 417.453 88.0672C421.633 89.7949 425.144 92.303 427.987 95.5913L419.292 103.617C415.112 99.2141 410.068 97.0126 404.16 97.0126C400.426 97.0126 397.11 97.7929 394.212 99.3534C391.313 100.914 389.056 103.116 387.44 105.958C385.823 108.8 385.015 112.061 385.015 115.739C385.015 119.362 385.823 122.595 387.44 125.437C389.056 128.28 391.285 130.509 394.128 132.125C397.026 133.686 400.314 134.466 403.993 134.466C407.894 134.466 411.406 133.63 414.527 131.958V114.82Z" fill="white"/>
<path d="M467.822 146.003C461.747 146.003 456.257 144.693 451.352 142.074C446.503 139.454 442.685 135.86 439.899 131.289C437.168 126.663 435.802 121.48 435.802 115.739C435.802 109.999 437.168 104.843 439.899 100.273C442.685 95.6471 446.503 92.0243 451.352 89.4048C456.257 86.7853 461.747 85.4755 467.822 85.4755C473.897 85.4755 479.359 86.7853 484.208 89.4048C489.056 92.0243 492.874 95.6471 495.661 100.273C498.448 104.843 499.841 109.999 499.841 115.739C499.841 121.48 498.448 126.663 495.661 131.289C492.874 135.86 489.056 139.454 484.208 142.074C479.359 144.693 473.897 146.003 467.822 146.003ZM467.822 134.466C471.277 134.466 474.398 133.686 477.185 132.125C479.972 130.509 482.145 128.28 483.706 125.437C485.322 122.595 486.13 119.362 486.13 115.739C486.13 112.117 485.322 108.884 483.706 106.042C482.145 103.199 479.972 100.998 477.185 99.437C474.398 97.8207 471.277 97.0126 467.822 97.0126C464.366 97.0126 461.245 97.8207 458.458 99.437C455.671 100.998 453.47 103.199 451.854 106.042C450.293 108.884 449.513 112.117 449.513 115.739C449.513 119.362 450.293 122.595 451.854 125.437C453.47 128.28 455.671 130.509 458.458 132.125C461.245 133.686 464.366 134.466 467.822 134.466Z" fill="white"/>
<path d="M536.02 146.003C527.66 146.003 521.139 143.69 516.457 139.064C511.831 134.438 509.518 127.834 509.518 119.251V86.4787H523.061V118.749C523.061 129.227 527.409 134.466 536.103 134.466C540.339 134.466 543.572 133.212 545.801 130.704C548.031 128.14 549.145 124.155 549.145 118.749V86.4787H562.522V119.251C562.522 127.834 560.181 134.438 555.499 139.064C550.873 143.69 544.38 146.003 536.02 146.003Z" fill="white"/>
<path d="M587.048 97.5142H568.321V86.4787H619.318V97.5142H600.591V145H587.048V97.5142Z" fill="white"/>
</svg>
