<svg width="1188" height="167" viewBox="0 0 1188 167" fill="none" xmlns="http://www.w3.org/2000/svg">
<path fill-rule="evenodd" clip-rule="evenodd" d="M0.699951 70.8C0.699951 31.7 32.3 0 71.5 0C110.7 0 142.4 31.7 142.4 70.8C142.4 133.3 75.7 166.6 75.7 166.6V141.6H71.5C32.4 141.6 0.699951 109.9 0.699951 70.8ZM63.1999 95.2C62.7999 95.2 62.2999 95.1 61.8999 95C60.0999 94.3 59.1999 92.3 59.8999 90.5L76.1999 49.2C76.8999 47.4 78.8999 46.5 80.6999 47.2C82.4999 47.9 83.3999 49.9 82.6999 51.7L66.3999 93C65.8999 94.3 64.5999 95.2 63.1999 95.2ZM90.7 90.4C89.7999 90.4 88.8999 90.1 88.1999 89.4C86.7999 88 86.7999 85.8 88.1999 84.4L101.7 70.9L88.1999 57.5C86.7999 56.1 86.7999 53.9 88.1999 52.6C89.5999 51.2 91.7999 51.2 93.0999 52.6L109 68.5C110.4 69.9 110.4 72.1 109 73.4L93.0999 89.3C92.3999 90.1 91.4999 90.4 90.7 90.4ZM49.8999 89.4C50.5999 90.1 51.4999 90.4 52.3999 90.4C53.2999 90.4 54.1999 90.1 54.8999 89.5C56.2999 88.2 56.2999 86 54.8999 84.6L41.3999 71.1L54.8999 57.6C56.2999 56.2 56.2999 54 54.8999 52.6C53.4999 51.2 51.2999 51.2 49.8999 52.6L33.9999 68.5C33.3999 69.2 32.9999 70 32.9999 71C32.9999 72 33.2999 72.8 33.9999 73.5L49.8999 89.4Z" fill="white"/>
<path d="M185.343 26.1141H229.501C239.729 26.1141 248.801 28.0263 256.717 31.8507C264.632 35.6751 270.769 41.1004 275.127 48.1265C279.485 55.1527 281.664 63.3795 281.664 72.8071C281.664 82.2346 279.485 90.4615 275.127 97.4876C270.769 104.514 264.632 109.939 256.717 113.763C248.801 117.588 239.729 119.5 229.501 119.5H185.343V26.1141ZM228.434 98.4215C236.439 98.4215 242.842 96.1536 247.645 91.6177C252.537 87.0818 254.982 80.8116 254.982 72.8071C254.982 64.8026 252.537 58.5324 247.645 53.9965C242.842 49.4606 236.439 47.1927 228.434 47.1927H211.758V98.4215H228.434Z" fill="white"/>
<path d="M370.537 99.0885V119.5H295.561V26.1141H368.803V46.5256H321.709V62.2678H363.199V82.0123H321.709V99.0885H370.537Z" fill="white"/>
<path d="M478.612 26.1141L438.59 119.5H412.575L372.686 26.1141H401.235L426.583 86.9484L452.464 26.1141H478.612Z" fill="white"/>
<path d="M571.014 26.1141V119.5H557.673V77.8766H504.043V119.5H490.702V26.1141H504.043V66.2701H557.673V26.1141H571.014Z" fill="white"/>
<path d="M658.467 96.1535H608.839L598.566 119.5H584.825L627.116 26.1141H640.323L682.747 119.5H668.739L658.467 96.1535ZM653.797 85.4809L633.653 39.7218L613.508 85.4809H653.797Z" fill="white"/>
<path d="M776.99 26.1141V119.5H766.05L710.019 49.8608V119.5H696.678V26.1141H707.617L763.649 95.7533V26.1141H776.99Z" fill="white"/>
<path d="M869.645 72.2734H882.452V108.694C877.827 112.518 872.446 115.453 866.31 117.499C860.173 119.544 853.769 120.567 847.099 120.567C837.671 120.567 829.178 118.522 821.618 114.431C814.058 110.25 808.099 104.558 803.741 97.3542C799.472 90.0612 797.338 81.8788 797.338 72.8071C797.338 63.7353 799.472 55.5529 803.741 48.2599C808.099 40.9669 814.058 35.2748 821.618 31.1837C829.267 27.0925 837.849 25.0469 847.366 25.0469C854.837 25.0469 861.596 26.292 867.644 28.7823C873.781 31.1837 878.983 34.7412 883.253 39.455L874.981 47.7263C867.51 40.5222 858.483 36.9202 847.899 36.9202C840.784 36.9202 834.381 38.4766 828.689 41.5895C823.085 44.6134 818.683 48.8825 815.481 54.3967C812.279 59.822 810.678 65.9588 810.678 72.8071C810.678 79.5664 812.279 85.7032 815.481 91.2174C818.683 96.6427 823.085 100.912 828.689 104.025C834.381 107.138 840.74 108.694 847.766 108.694C856.126 108.694 863.419 106.693 869.645 102.691V72.2734Z" fill="white"/>
<path d="M950.152 120.567C940.724 120.567 932.23 118.522 924.671 114.431C917.111 110.25 911.152 104.514 906.794 97.2208C902.525 89.9278 900.39 81.7899 900.39 72.8071C900.39 63.8242 902.525 55.6863 906.794 48.3933C911.152 41.1003 917.111 35.4083 924.671 31.3171C932.23 27.1369 940.724 25.0469 950.152 25.0469C959.49 25.0469 967.939 27.1369 975.499 31.3171C983.059 35.4083 988.973 41.1003 993.243 48.3933C997.512 55.5974 999.646 63.7353 999.646 72.8071C999.646 81.8788 997.512 90.0612 993.243 97.3542C988.973 104.558 983.059 110.25 975.499 114.431C967.939 118.522 959.49 120.567 950.152 120.567ZM950.152 108.694C957 108.694 963.137 107.138 968.562 104.025C974.076 100.912 978.39 96.6427 981.503 91.2174C984.704 85.7032 986.305 79.5664 986.305 72.8071C986.305 66.0477 984.704 59.9554 981.503 54.5301C978.39 49.0159 974.076 44.7024 968.562 41.5895C963.137 38.4766 957 36.9202 950.152 36.9202C943.303 36.9202 937.078 38.4766 931.474 41.5895C925.96 44.7024 921.602 49.0159 918.4 54.5301C915.288 59.9554 913.731 66.0477 913.731 72.8071C913.731 79.5664 915.288 85.7032 918.4 91.2174C921.602 96.6427 925.96 100.912 931.474 104.025C937.078 107.138 943.303 108.694 950.152 108.694Z" fill="white"/>
<path d="M1058.73 120.567C1046.27 120.567 1036.58 117.01 1029.64 109.895C1022.7 102.78 1019.24 92.5515 1019.24 79.2107V26.1141H1032.58V78.677C1032.58 98.6883 1041.34 108.694 1058.86 108.694C1067.4 108.694 1073.93 106.248 1078.47 101.356C1083.01 96.3759 1085.27 88.8161 1085.27 78.677V26.1141H1098.21V79.2107C1098.21 92.6405 1094.75 102.913 1087.81 110.028C1080.87 117.054 1071.18 120.567 1058.73 120.567Z" fill="white"/>
<path d="M1142.42 37.7207H1110.4V26.1141H1187.64V37.7207H1155.62V119.5H1142.42V37.7207Z" fill="white"/>
</svg>
