<svg width="714" height="168" viewBox="0 0 714 168" fill="none" xmlns="http://www.w3.org/2000/svg">
<path d="M71.6 0.899994C32.4 0.899994 0.800049 32.6 0.800049 71.7C0.800049 110.8 32.5 142.5 71.6 142.5C73.3 142.5 75.8 142.5 75.8 142.5V167.5C75.8 167.5 142.5 134.2 142.5 71.7C142.4 32.5 110.7 0.899994 71.6 0.899994Z" fill="url(#paint0_linear)"/>
<path d="M63.2 96C62.8 96 62.3001 95.9 61.9001 95.8C60.1001 95.1 59.2001 93.1 59.9001 91.3L76.2 50C76.9 48.2 78.9 47.3 80.7 48C82.5 48.7 83.4 50.7 82.7 52.5L66.4001 93.8C65.9001 95.2 64.6 96 63.2 96Z" fill="white"/>
<path d="M90.6999 91.3C89.7999 91.3 88.8999 91 88.1999 90.3C86.7999 88.9 86.7999 86.7 88.1999 85.3L101.7 71.8L88.1999 58.3C86.7999 56.9 86.7999 54.7 88.1999 53.4C89.5999 52 91.7999 52 93.0999 53.4L109 69.3C110.4 70.7 110.4 72.9 109 74.2L93.0999 90.1C92.4999 91 91.5999 91.3 90.6999 91.3Z" fill="white"/>
<path d="M52.4 91.3C51.5 91.3 50.6 91 49.9 90.3L34 74.4C33.3 73.7 33 72.9 33 71.9C33 70.9 33.4 70.1 34 69.4L49.9 53.5C51.3 52.1 53.5 52.1 54.9 53.5C56.3 54.9 56.3 57.1 54.9 58.5L41.4 72L54.9 85.5C56.3 86.9 56.3 89.1 54.9 90.4C54.2 91 53.3 91.3 52.4 91.3Z" fill="white"/>
<path d="M178.279 10.7536H205.951C212.361 10.7536 218.046 11.9519 223.006 14.3485C227.966 16.7451 231.812 20.1449 234.543 24.5479C237.274 28.951 238.64 34.1064 238.64 40.0143C238.64 45.9221 237.274 51.0776 234.543 55.4806C231.812 59.8836 227.966 63.2834 223.006 65.68C218.046 68.0766 212.361 69.2749 205.951 69.2749H178.279V10.7536ZM205.282 56.0658C210.299 56.0658 214.311 54.6446 217.321 51.8021C220.386 48.9597 221.919 45.0304 221.919 40.0143C221.919 34.9982 220.386 31.0689 217.321 28.2264C214.311 25.384 210.299 23.9627 205.282 23.9627H194.832V56.0658H205.282Z" fill="white"/>
<path d="M294.333 56.4838V69.2749H247.349V10.7536H293.246V23.5447H263.734V33.4097H289.735V45.7828H263.734V56.4838H294.333Z" fill="white"/>
<path d="M362.059 10.7536L336.979 69.2749H320.676L295.679 10.7536H313.57L329.455 48.8761L345.673 10.7536H362.059Z" fill="white"/>
<path d="M412.469 56.4838V69.2749H365.485V10.7536H411.382V23.5447H381.871V33.4097H407.871V45.7828H381.871V56.4838H412.469Z" fill="white"/>
<path d="M421.655 10.7536H438.208V56.1494H466.131V69.2749H421.655V10.7536Z" fill="white"/>
<path d="M501.295 70.4453C495.108 70.4453 489.535 69.1356 484.574 66.5161C479.67 63.8965 475.796 60.2738 472.954 55.6478C470.167 51.0219 468.774 45.8107 468.774 40.0143C468.774 34.2179 470.167 29.0067 472.954 24.3807C475.796 19.7548 479.67 16.132 484.574 13.5125C489.535 10.893 495.108 9.58322 501.295 9.58322C507.481 9.58322 513.027 10.893 517.932 13.5125C522.892 16.132 526.766 19.7548 529.552 24.3807C532.395 29.0067 533.816 34.2179 533.816 40.0143C533.816 45.8107 532.395 51.0219 529.552 55.6478C526.766 60.2738 522.892 63.8965 517.932 66.5161C513.027 69.1356 507.481 70.4453 501.295 70.4453ZM501.295 56.7346C504.249 56.7346 506.924 56.038 509.321 54.6446C511.717 53.2512 513.612 51.3005 515.006 48.7925C516.399 46.2287 517.096 43.3026 517.096 40.0143C517.096 36.7259 516.399 33.8277 515.006 31.3197C513.612 28.7559 511.717 26.7773 509.321 25.384C506.924 23.9906 504.249 23.2939 501.295 23.2939C498.341 23.2939 495.666 23.9906 493.269 25.384C490.873 26.7773 488.978 28.7559 487.584 31.3197C486.191 33.8277 485.494 36.7259 485.494 40.0143C485.494 43.3026 486.191 46.2287 487.584 48.7925C488.978 51.3005 490.873 53.2512 493.269 54.6446C495.666 56.038 498.341 56.7346 501.295 56.7346Z" fill="white"/>
<path d="M569.238 10.7536C574.533 10.7536 579.131 11.6454 583.033 13.4289C586.934 15.1567 589.944 17.6647 592.062 20.9531C594.18 24.1857 595.238 28.0035 595.238 32.4065C595.238 36.8095 594.18 40.6274 592.062 43.86C589.944 47.0926 586.934 49.6006 583.033 51.3841C579.131 53.1119 574.533 53.9758 569.238 53.9758H559.039V69.2749H542.486V10.7536H569.238ZM568.235 40.9339C571.635 40.9339 574.199 40.2094 575.926 38.7603C577.654 37.2554 578.518 35.1375 578.518 32.4065C578.518 29.6755 577.654 27.5576 575.926 26.0528C574.199 24.5479 571.635 23.7955 568.235 23.7955H559.039V40.9339H568.235Z" fill="white"/>
<path d="M650.294 56.4838V69.2749H603.309V10.7536H649.207V23.5447H619.695V33.4097H645.695V45.7828H619.695V56.4838H650.294Z" fill="white"/>
<path d="M685.061 53.725H676.032V69.2749H659.479V10.7536H686.232C691.527 10.7536 696.125 11.6454 700.026 13.4289C703.928 15.1567 706.937 17.6647 709.055 20.9531C711.173 24.1857 712.232 28.0035 712.232 32.4065C712.232 36.6423 711.229 40.3487 709.222 43.5256C707.272 46.6467 704.457 49.099 700.779 50.8825L713.402 69.2749H695.679L685.061 53.725ZM695.512 32.4065C695.512 29.6755 694.648 27.5576 692.92 26.0528C691.192 24.5479 688.628 23.7955 685.229 23.7955H676.032V40.9339H685.229C688.628 40.9339 691.192 40.2094 692.92 38.7603C694.648 37.2554 695.512 35.1375 695.512 32.4065Z" fill="white"/>
<path d="M232.286 86.7536V145.275H221.418V120.194H191.154V145.275H180.285V86.7536H191.154V110.915H221.418V86.7536H232.286Z" fill="white"/>
<path d="M285.922 131.731H256.662L250.893 145.275H239.69L266.025 86.7536H276.726L303.144 145.275H291.774L285.922 131.731ZM282.327 123.204L271.292 97.6219L260.34 123.204H282.327Z" fill="white"/>
<path d="M362.587 86.7536V145.275H353.642L321.371 105.648V145.275H310.587V86.7536H319.532L351.802 126.381V86.7536H362.587Z" fill="white"/>
<path d="M418.23 115.345H428.513V138.67C425.503 141.067 421.992 142.906 417.979 144.188C413.966 145.47 409.842 146.111 405.606 146.111C399.642 146.111 394.264 144.829 389.471 142.265C384.678 139.646 380.916 136.051 378.185 131.481C375.454 126.91 374.088 121.755 374.088 116.014C374.088 110.274 375.454 105.118 378.185 100.548C380.916 95.9777 384.678 92.4107 389.471 89.8469C394.32 87.2274 399.754 85.9176 405.773 85.9176C410.678 85.9176 415.137 86.7258 419.15 88.3421C423.162 89.9584 426.534 92.3271 429.265 95.4482L422.41 102.136C417.951 97.6776 412.573 95.4482 406.275 95.4482C402.151 95.4482 398.472 96.3121 395.239 98.0399C392.063 99.7677 389.555 102.192 387.715 105.313C385.932 108.434 385.04 112.001 385.04 116.014C385.04 119.916 385.932 123.427 387.715 126.548C389.555 129.669 392.063 132.122 395.239 133.905C398.472 135.689 402.123 136.58 406.191 136.58C410.762 136.58 414.774 135.577 418.23 133.571V115.345Z" fill="white"/>
<path d="M470.185 146.111C464.222 146.111 458.843 144.829 454.05 142.265C449.257 139.646 445.495 136.051 442.764 131.481C440.033 126.855 438.667 121.699 438.667 116.014C438.667 110.329 440.033 105.202 442.764 100.632C445.495 96.0056 449.257 92.4107 454.05 89.8469C458.843 87.2274 464.222 85.9176 470.185 85.9176C476.149 85.9176 481.527 87.2274 486.32 89.8469C491.114 92.4107 494.876 95.9777 497.607 100.548C500.338 105.118 501.703 110.274 501.703 116.014C501.703 121.755 500.338 126.91 497.607 131.481C494.876 136.051 491.114 139.646 486.32 142.265C481.527 144.829 476.149 146.111 470.185 146.111ZM470.185 136.58C474.087 136.58 477.598 135.716 480.719 133.989C483.84 132.205 486.292 129.753 488.076 126.632C489.859 123.455 490.751 119.916 490.751 116.014C490.751 112.113 489.859 108.602 488.076 105.48C486.292 102.304 483.84 99.8513 480.719 98.1235C477.598 96.34 474.087 95.4482 470.185 95.4482C466.284 95.4482 462.773 96.34 459.651 98.1235C456.53 99.8513 454.078 102.304 452.294 105.48C450.511 108.602 449.619 112.113 449.619 116.014C449.619 119.916 450.511 123.455 452.294 126.632C454.078 129.753 456.53 132.205 459.651 133.989C462.773 135.716 466.284 136.58 470.185 136.58Z" fill="white"/>
<path d="M538.387 146.111C530.306 146.111 524.008 143.854 519.493 139.339C514.979 134.769 512.722 128.248 512.722 119.776V86.7536H523.59V119.358C523.59 130.84 528.55 136.58 538.471 136.58C548.336 136.58 553.268 130.84 553.268 119.358V86.7536H563.969V119.776C563.969 128.248 561.712 134.769 557.198 139.339C552.739 143.854 546.469 146.111 538.387 146.111Z" fill="white"/>
<path d="M590 95.9498H570.605V86.7536H620.264V95.9498H600.869V145.275H590V95.9498Z" fill="white"/>
<defs>
<linearGradient id="paint0_linear" x1="0.718849" y1="84.2135" x2="142.385" y2="84.2135" gradientUnits="userSpaceOnUse">
<stop stop-color="#FF6199"/>
<stop offset="1" stop-color="#FFA969"/>
</linearGradient>
</defs>
</svg>
