<svg width="714" height="168" viewBox="0 0 714 168" fill="none" xmlns="http://www.w3.org/2000/svg">
<path fill-rule="evenodd" clip-rule="evenodd" d="M0.699951 71.4041C0.699951 32.3041 32.3 0.604126 71.5 0.604126C110.7 0.604126 142.4 32.3041 142.4 71.4041C142.4 133.904 75.7 167.204 75.7 167.204V142.204H71.5C32.4 142.204 0.699951 110.504 0.699951 71.4041ZM63.1999 95.8041C62.7999 95.8041 62.2999 95.7041 61.8999 95.6041C60.0999 94.9041 59.1999 92.9041 59.8999 91.1041L76.1999 49.8041C76.8999 48.0041 78.8999 47.1041 80.6999 47.8041C82.4999 48.5041 83.3999 50.5041 82.6999 52.3041L66.3999 93.6041C65.8999 94.9041 64.5999 95.8041 63.1999 95.8041ZM90.7 91.0041C89.7999 91.0041 88.8999 90.7041 88.1999 90.0041C86.7999 88.6041 86.7999 86.4041 88.1999 85.0041L101.7 71.5041L88.1999 58.1041C86.7999 56.7041 86.7999 54.5041 88.1999 53.2041C89.5999 51.8041 91.7999 51.8041 93.0999 53.2041L109 69.1041C110.4 70.5041 110.4 72.7041 109 74.0041L93.0999 89.9041C92.3999 90.7041 91.4999 91.0041 90.7 91.0041ZM49.8999 90.0041C50.5999 90.7041 51.4999 91.0041 52.3999 91.0041C53.2999 91.0041 54.1999 90.7041 54.8999 90.1041C56.2999 88.8041 56.2999 86.6041 54.8999 85.2041L41.3999 71.7041L54.8999 58.2041C56.2999 56.8041 56.2999 54.6041 54.8999 53.2041C53.4999 51.8041 51.2999 51.8041 49.8999 53.2041L33.9999 69.1041C33.3999 69.8041 32.9999 70.6041 32.9999 71.6041C32.9999 72.6041 33.2999 73.4041 33.9999 74.1041L49.8999 90.0041Z" fill="white"/>
<path d="M178.279 10.8577H205.951C212.361 10.8577 218.046 12.056 223.006 14.4526C227.966 16.8492 231.812 20.249 234.543 24.652C237.274 29.0551 238.64 34.2105 238.64 40.1184C238.64 46.0262 237.274 51.1817 234.543 55.5847C231.812 59.9877 227.966 63.3875 223.006 65.7841C218.046 68.1807 212.361 69.379 205.951 69.379H178.279V10.8577ZM205.282 56.1699C210.299 56.1699 214.311 54.7487 217.321 51.9062C220.386 49.0638 221.919 45.1345 221.919 40.1184C221.919 35.1023 220.386 31.173 217.321 28.3305C214.311 25.4881 210.299 24.0668 205.282 24.0668H194.832V56.1699H205.282Z" fill="white"/>
<path d="M294.333 56.5879V69.379H247.349V10.8577H293.246V23.6488H263.734V33.5138H289.735V45.8869H263.734V56.5879H294.333Z" fill="white"/>
<path d="M362.059 10.8577L336.979 69.379H320.676L295.679 10.8577H313.57L329.455 48.9802L345.673 10.8577H362.059Z" fill="white"/>
<path d="M412.469 56.5879V69.379H365.485V10.8577H411.382V23.6488H381.871V33.5138H407.871V45.8869H381.871V56.5879H412.469Z" fill="white"/>
<path d="M421.655 10.8577H438.208V56.2535H466.131V69.379H421.655V10.8577Z" fill="white"/>
<path d="M501.295 70.5494C495.108 70.5494 489.535 69.2397 484.574 66.6201C479.67 64.0006 475.796 60.3779 472.954 55.7519C470.167 51.1259 468.774 45.9148 468.774 40.1184C468.774 34.322 470.167 29.1108 472.954 24.4848C475.796 19.8589 479.67 16.2361 484.574 13.6166C489.535 10.9971 495.108 9.68732 501.295 9.68732C507.481 9.68732 513.027 10.9971 517.932 13.6166C522.892 16.2361 526.766 19.8589 529.552 24.4848C532.395 29.1108 533.816 34.322 533.816 40.1184C533.816 45.9148 532.395 51.1259 529.552 55.7519C526.766 60.3779 522.892 64.0006 517.932 66.6201C513.027 69.2397 507.481 70.5494 501.295 70.5494ZM501.295 56.8387C504.249 56.8387 506.924 56.1421 509.321 54.7487C511.717 53.3553 513.612 51.4046 515.006 48.8966C516.399 46.3328 517.096 43.4067 517.096 40.1184C517.096 36.83 516.399 33.9318 515.006 31.4238C513.612 28.86 511.717 26.8814 509.321 25.4881C506.924 24.0947 504.249 23.398 501.295 23.398C498.341 23.398 495.666 24.0947 493.269 25.4881C490.873 26.8814 488.978 28.86 487.584 31.4238C486.191 33.9318 485.494 36.83 485.494 40.1184C485.494 43.4067 486.191 46.3328 487.584 48.8966C488.978 51.4046 490.873 53.3553 493.269 54.7487C495.666 56.1421 498.341 56.8387 501.295 56.8387Z" fill="white"/>
<path d="M569.238 10.8577C574.533 10.8577 579.131 11.7495 583.033 13.533C586.934 15.2608 589.944 17.7688 592.062 21.0572C594.18 24.2898 595.238 28.1076 595.238 32.5106C595.238 36.9136 594.18 40.7315 592.062 43.9641C589.944 47.1967 586.934 49.7047 583.033 51.4882C579.131 53.216 574.533 54.0799 569.238 54.0799H559.039V69.379H542.486V10.8577H569.238ZM568.235 41.038C571.635 41.038 574.199 40.3134 575.926 38.8643C577.654 37.3595 578.518 35.2416 578.518 32.5106C578.518 29.7796 577.654 27.6617 575.926 26.1569C574.199 24.652 571.635 23.8996 568.235 23.8996H559.039V41.038H568.235Z" fill="white"/>
<path d="M650.294 56.5879V69.379H603.309V10.8577H649.207V23.6488H619.695V33.5138H645.695V45.8869H619.695V56.5879H650.294Z" fill="white"/>
<path d="M685.061 53.8291H676.032V69.379H659.479V10.8577H686.232C691.527 10.8577 696.125 11.7495 700.026 13.533C703.928 15.2608 706.937 17.7688 709.055 21.0572C711.173 24.2898 712.232 28.1076 712.232 32.5106C712.232 36.7464 711.229 40.4528 709.222 43.6297C707.272 46.7508 704.457 49.2031 700.779 50.9866L713.402 69.379H695.679L685.061 53.8291ZM695.512 32.5106C695.512 29.7796 694.648 27.6617 692.92 26.1569C691.192 24.652 688.628 23.8996 685.229 23.8996H676.032V41.038H685.229C688.628 41.038 691.192 40.3134 692.92 38.8643C694.648 37.3595 695.512 35.2416 695.512 32.5106Z" fill="white"/>
<path d="M232.286 86.8577V145.379H221.418V120.298H191.154V145.379H180.285V86.8577H191.154V111.019H221.418V86.8577H232.286Z" fill="white"/>
<path d="M285.922 131.836H256.662L250.893 145.379H239.69L266.025 86.8577H276.726L303.144 145.379H291.774L285.922 131.836ZM282.327 123.308L271.292 97.726L260.34 123.308H282.327Z" fill="white"/>
<path d="M362.587 86.8577V145.379H353.642L321.371 105.752V145.379H310.587V86.8577H319.532L351.802 126.485V86.8577H362.587Z" fill="white"/>
<path d="M418.23 115.45H428.513V138.774C425.503 141.171 421.992 143.01 417.979 144.292C413.966 145.574 409.842 146.215 405.606 146.215C399.642 146.215 394.264 144.933 389.471 142.369C384.678 139.75 380.916 136.155 378.185 131.585C375.454 127.014 374.088 121.859 374.088 116.118C374.088 110.378 375.454 105.222 378.185 100.652C380.916 96.0818 384.678 92.5148 389.471 89.951C394.32 87.3315 399.754 86.0217 405.773 86.0217C410.678 86.0217 415.137 86.8299 419.15 88.4462C423.162 90.0625 426.534 92.4312 429.265 95.5523L422.41 102.24C417.951 97.7817 412.573 95.5523 406.275 95.5523C402.151 95.5523 398.472 96.4162 395.239 98.144C392.063 99.8718 389.555 102.296 387.715 105.417C385.932 108.538 385.04 112.105 385.04 116.118C385.04 120.02 385.932 123.531 387.715 126.652C389.555 129.773 392.063 132.226 395.239 134.009C398.472 135.793 402.123 136.684 406.191 136.684C410.762 136.684 414.774 135.681 418.23 133.675V115.45Z" fill="white"/>
<path d="M470.185 146.215C464.222 146.215 458.843 144.933 454.05 142.369C449.257 139.75 445.495 136.155 442.764 131.585C440.033 126.959 438.667 121.803 438.667 116.118C438.667 110.433 440.033 105.306 442.764 100.736C445.495 96.1097 449.257 92.5148 454.05 89.951C458.843 87.3315 464.222 86.0217 470.185 86.0217C476.149 86.0217 481.527 87.3315 486.32 89.951C491.114 92.5148 494.876 96.0818 497.607 100.652C500.338 105.222 501.703 110.378 501.703 116.118C501.703 121.859 500.338 127.014 497.607 131.585C494.876 136.155 491.114 139.75 486.32 142.369C481.527 144.933 476.149 146.215 470.185 146.215ZM470.185 136.684C474.087 136.684 477.598 135.821 480.719 134.093C483.84 132.309 486.292 129.857 488.076 126.736C489.859 123.559 490.751 120.02 490.751 116.118C490.751 112.217 489.859 108.706 488.076 105.585C486.292 102.408 483.84 99.9554 480.719 98.2276C477.598 96.4441 474.087 95.5523 470.185 95.5523C466.284 95.5523 462.773 96.4441 459.651 98.2276C456.53 99.9554 454.078 102.408 452.294 105.585C450.511 108.706 449.619 112.217 449.619 116.118C449.619 120.02 450.511 123.559 452.294 126.736C454.078 129.857 456.53 132.309 459.651 134.093C462.773 135.821 466.284 136.684 470.185 136.684Z" fill="white"/>
<path d="M538.387 146.215C530.306 146.215 524.008 143.958 519.493 139.443C514.979 134.873 512.722 128.352 512.722 119.88V86.8577H523.59V119.462C523.59 130.944 528.55 136.684 538.471 136.684C548.336 136.684 553.268 130.944 553.268 119.462V86.8577H563.969V119.88C563.969 128.352 561.712 134.873 557.198 139.443C552.739 143.958 546.469 146.215 538.387 146.215Z" fill="white"/>
<path d="M590 96.0539H570.605V86.8577H620.264V96.0539H600.869V145.379H590V96.0539Z" fill="white"/>
</svg>
